#N canvas 39 23 1245 699 10;
#X obj 976 644 dac~;
#X obj 927 530 / 100;
#X floatatom 927 500 5 0 0 0 - - -, f 5;
#X obj 898 579 compressor~;
#X msg 250 536 start 0;
#X msg 730 515 stop;
#X obj 249 357 bng 15 250 50 0 empty empty empty 17 7 0 10 -262144
-1 -1;
#X obj 303 407 bng 15 250 50 0 empty empty empty 17 7 0 10 -262144
-1 -1;
#X obj 363 440 bng 15 250 50 0 empty empty empty 17 7 0 10 -262144
-1 -1;
#X msg 498 146 start;
#X msg 531 192 stop;
#X floatatom 638 173 5 0 0 0 - - -, f 5;
#X obj 566 224 expr $f1*1000;
#X obj 303 358 delay;
#X obj 354 383 delay;
#X obj 498 173 bng 15 250 50 0 empty empty empty 17 7 0 10 -262144
-1 -1;
#X obj 380 357 expr $f1*2;
#X obj 445 284 metro;
#X obj 154 518 timer;
#X floatatom 154 538 5 0 0 0 - - -, f 5;
#X floatatom 643 301 5 0 0 0 - - -, f 5;
#X obj 565 284 metro;
#X obj 378 270 bng 15 250 50 0 empty empty empty 17 7 0 10 -262144
-1 -1;
#X msg 309 537 start 0;
#X msg 369 537 start 0;
#X obj 328 723 tabwrite~ sampler1;
#X obj 462 725 tabwrite~ sampler2;
#X obj 204 722 tabwrite~ sampler0;
#X obj 808 389 tabread4~ sampler0;
#X obj 964 389 tabread4~ sampler1;
#X obj 810 417 tabread4~ sampler2;
#X msg 246 649 stop;
#X msg 331 647 stop;
#X msg 395 646 stop;
#X obj 85 113 table sampler0 441000;
#X obj 86 138 table sampler1 441000;
#X obj 86 163 table sampler2 441000;
#X obj 870 323 +~ 1;
#X obj 869 296 *~;
#X obj 882 222 expr $f1*44100;
#X obj 797 252 phasor~ 0.3;
#X obj 801 221 expr 1/$f1;
#X obj 969 416 tabread4~ sampler3;
#X obj 820 444 tabread4~ sampler4;
#X obj 968 441 tabread4~ sampler5;
#X obj 997 580 compressor~;
#X obj 228 114 table sampler3 441000;
#X obj 229 138 table sampler4 441000;
#X obj 230 162 table sampler5 441000;
#X msg 467 647 stop;
#X msg 555 646 stop;
#X obj 589 725 tabwrite~ sampler3;
#X obj 710 727 tabwrite~ sampler4;
#X obj 836 728 tabwrite~ sampler5;
#X msg 434 538 start 0;
#X msg 496 539 start 0;
#X msg 554 539 start 0;
#X obj 429 466 bng 15 250 50 0 empty empty empty 17 7 0 10 -262144
-1 -1;
#X obj 502 491 bng 15 250 50 0 empty empty empty 17 7 0 10 -262144
-1 -1;
#X obj 556 500 bng 15 250 50 0 empty empty empty 17 7 0 10 -262144
-1 -1;
#X obj 410 407 delay;
#X obj 446 384 expr $f1*3;
#X obj 500 434 delay;
#X obj 556 465 delay;
#X obj 526 407 expr $f1*4;
#X obj 593 437 expr $f1*5;
#X obj 485 257 expr $f1*6;
#X obj 310 870 inlet;
#X obj 356 870 inlet;
#X obj 498 118 loadbang;
#X obj 1030 840 inlet;
#X msg 639 145 5;
#X msg 654 646 stop;
#X connect 1 0 3 1;
#X connect 1 0 45 1;
#X connect 2 0 1 0;
#X connect 3 0 0 0;
#X connect 4 0 27 0;
#X connect 4 0 32 0;
#X connect 4 0 33 0;
#X connect 4 0 49 0;
#X connect 4 0 50 0;
#X connect 4 0 72 0;
#X connect 5 0 31 0;
#X connect 5 0 32 0;
#X connect 5 0 33 0;
#X connect 5 0 49 0;
#X connect 5 0 50 0;
#X connect 5 0 72 0;
#X connect 6 0 18 0;
#X connect 6 0 18 1;
#X connect 6 0 4 0;
#X connect 7 0 18 1;
#X connect 7 0 23 0;
#X connect 8 0 18 1;
#X connect 8 0 24 0;
#X connect 9 0 15 0;
#X connect 10 0 17 0;
#X connect 10 0 5 0;
#X connect 10 0 21 0;
#X connect 11 0 12 0;
#X connect 11 0 39 0;
#X connect 11 0 41 0;
#X connect 12 0 20 0;
#X connect 12 0 66 0;
#X connect 13 0 7 0;
#X connect 14 0 8 0;
#X connect 15 0 17 0;
#X connect 15 0 21 0;
#X connect 15 0 71 0;
#X connect 16 0 14 1;
#X connect 17 0 22 0;
#X connect 18 0 19 0;
#X connect 20 0 13 1;
#X connect 20 0 16 0;
#X connect 20 0 21 1;
#X connect 20 0 61 0;
#X connect 20 0 64 0;
#X connect 20 0 65 0;
#X connect 22 0 14 0;
#X connect 22 0 13 0;
#X connect 22 0 6 0;
#X connect 22 0 60 0;
#X connect 22 0 62 0;
#X connect 22 0 63 0;
#X connect 23 0 25 0;
#X connect 23 0 31 0;
#X connect 23 0 33 0;
#X connect 23 0 49 0;
#X connect 23 0 50 0;
#X connect 23 0 72 0;
#X connect 24 0 26 0;
#X connect 24 0 32 0;
#X connect 24 0 31 0;
#X connect 24 0 49 0;
#X connect 24 0 50 0;
#X connect 24 0 72 0;
#X connect 28 0 3 0;
#X connect 29 0 45 0;
#X connect 30 0 3 0;
#X connect 31 0 27 0;
#X connect 32 0 25 0;
#X connect 33 0 26 0;
#X connect 37 0 28 0;
#X connect 37 0 29 0;
#X connect 37 0 30 0;
#X connect 37 0 42 0;
#X connect 37 0 43 0;
#X connect 37 0 44 0;
#X connect 38 0 37 0;
#X connect 39 0 38 1;
#X connect 40 0 38 0;
#X connect 41 0 40 0;
#X connect 42 0 45 0;
#X connect 43 0 3 0;
#X connect 44 0 45 0;
#X connect 45 0 0 1;
#X connect 49 0 51 0;
#X connect 50 0 52 0;
#X connect 54 0 51 0;
#X connect 54 0 31 0;
#X connect 54 0 32 0;
#X connect 54 0 33 0;
#X connect 54 0 50 0;
#X connect 54 0 72 0;
#X connect 55 0 52 0;
#X connect 55 0 31 0;
#X connect 55 0 32 0;
#X connect 55 0 33 0;
#X connect 55 0 49 0;
#X connect 55 0 72 0;
#X connect 56 0 53 0;
#X connect 56 0 50 0;
#X connect 56 0 49 0;
#X connect 56 0 33 0;
#X connect 56 0 32 0;
#X connect 56 0 31 0;
#X connect 57 0 54 0;
#X connect 57 0 18 1;
#X connect 58 0 55 0;
#X connect 58 0 18 1;
#X connect 59 0 56 0;
#X connect 59 0 18 1;
#X connect 60 0 57 0;
#X connect 61 0 60 1;
#X connect 62 0 58 0;
#X connect 63 0 59 0;
#X connect 64 0 62 1;
#X connect 65 0 63 1;
#X connect 66 0 17 1;
#X connect 67 0 27 0;
#X connect 67 0 25 0;
#X connect 67 0 26 0;
#X connect 67 0 51 0;
#X connect 67 0 52 0;
#X connect 67 0 53 0;
#X connect 68 0 53 0;
#X connect 68 0 52 0;
#X connect 68 0 51 0;
#X connect 68 0 26 0;
#X connect 68 0 25 0;
#X connect 68 0 27 0;
#X connect 69 0 9 0;
#X connect 70 0 11 0;
#X connect 71 0 11 0;
#X connect 72 0 53 0;
#X coords 0 -1 1 1 350 200 1 50 50;
