#N canvas 460 173 1286 688 10;
#X obj 472 180 table sampler 144000;
#X obj 169 109 adc~;
#X obj 173 160 tabwrite~ sampler;
#X obj 310 71 r Channel-Push;
#X obj 310 109 sel 1 0;
#X msg 297 137 stop;
#X obj 351 342 tabread~ sampler;
#X obj 343 395 dac~;
#X obj 352 275 phasor~;
#X obj 352 311 *~ 1;
#X obj 356 162 timer;
#X obj 356 191 t b f f;
#X obj 435 262 * 48;
#X obj 355 245 /;
#X msg 353 218 1000;
#X connect 1 0 2 0;
#X connect 1 1 2 0;
#X connect 3 0 4 0;
#X connect 4 0 2 0;
#X connect 4 0 10 0;
#X connect 4 1 5 0;
#X connect 4 1 10 1;
#X connect 5 0 2 0;
#X connect 6 0 7 0;
#X connect 6 0 7 1;
#X connect 8 0 9 0;
#X connect 9 0 6 0;
#X connect 10 0 11 0;
#X connect 11 0 14 0;
#X connect 11 1 13 1;
#X connect 11 2 12 0;
#X connect 12 0 9 1;
#X connect 13 0 8 0;
#X connect 14 0 13 0;
