#N canvas 568 23 628 497 10;
#X obj 86 311 dac~;
#X obj 86 276 osc~ 440;
#X obj 86 248 mtof;
#X obj 197 45 table sticky 16;
#X obj 27 165 tabread sticky;
#X floatatom 27 190 5 0 0 0 - - -, f 5;
#X obj 86 220 + 48;
#X msg 198 69 \; sticky 0 12 3 5 7 10 12;
#X floatatom 50 244 5 0 0 0 - - -, f 5;
#X floatatom 50 274 5 0 0 0 - - -, f 5;
#X obj 27 73 f;
#X obj 70 73 + 1;
#X floatatom 27 98 5 0 0 0 - - -, f 5;
#X obj 27 119 % 16;
#X floatatom 27 144 5 0 0 0 - - -, f 5;
#X obj 27 45 metro 100;
#X obj 27 19 bng 15 250 50 0 empty empty empty 17 7 0 10 -262144 -1
-1;
#X msg 60 19 stop;
#X text 272 469 completed using tutorial at https://youtu.be/FkmMzqohsDo
;
#X connect 1 0 0 0;
#X connect 1 0 0 1;
#X connect 2 0 1 0;
#X connect 2 0 9 0;
#X connect 4 0 5 0;
#X connect 5 0 6 0;
#X connect 6 0 2 0;
#X connect 6 0 8 0;
#X connect 10 0 11 0;
#X connect 10 0 12 0;
#X connect 11 0 10 1;
#X connect 12 0 13 0;
#X connect 13 0 14 0;
#X connect 14 0 4 0;
#X connect 15 0 10 0;
#X connect 16 0 15 0;
#X connect 17 0 15 0;
